<svg width="19" height="20" viewBox="0 0 19 20" fill="none" xmlns="http://www.w3.org/2000/svg">
<path d="M3.05756 20C2.43881 20 1.90931 19.8043 1.46906 19.413C1.02806 19.021 0.807556 18.55 0.807556 18V6C0.807556 5.45 1.02806 4.97933 1.46906 4.588C1.90931 4.196 2.43881 4 3.05756 4H5.30756C5.30756 2.9 5.74818 1.95833 6.62943 1.175C7.51068 0.391667 8.57006 0 9.80756 0C11.0451 0 12.1044 0.391667 12.9857 1.175C13.8669 1.95833 14.3076 2.9 14.3076 4H16.5576C17.1763 4 17.7062 4.196 18.1472 4.588C18.5874 4.97933 18.8076 5.45 18.8076 6V18C18.8076 18.55 18.5874 19.021 18.1472 19.413C17.7062 19.8043 17.1763 20 16.5576 20H3.05756ZM3.05756 18H16.5576V6H14.3076V8C14.3076 8.28333 14.1999 8.52067 13.9847 8.712C13.7687 8.904 13.5013 9 13.1826 9C12.8638 9 12.5968 8.904 12.3816 8.712C12.1656 8.52067 12.0576 8.28333 12.0576 8V6H7.55756V8C7.55756 8.28333 7.44993 8.52067 7.23468 8.712C7.01868 8.904 6.75131 9 6.43256 9C6.11381 9 5.84681 8.904 5.63156 8.712C5.41556 8.52067 5.30756 8.28333 5.30756 8V6H3.05756V18ZM7.55756 4H12.0576C12.0576 3.45 11.8374 2.97933 11.3972 2.588C10.9562 2.196 10.4263 2 9.80756 2C9.18881 2 8.65931 2.196 8.21906 2.588C7.77806 2.97933 7.55756 3.45 7.55756 4ZM3.05756 18V6V18Z" fill="#1E1E1E"/>
</svg>
