<svg width="26" height="23" viewBox="0 0 26 23" fill="none" xmlns="http://www.w3.org/2000/svg">
<path d="M20.488 18.403C21.1444 18.403 21.7739 18.6348 22.2381 19.0473C22.7022 19.4599 22.963 20.0195 22.963 20.603C22.963 21.1865 22.7022 21.746 22.2381 22.1586C21.7739 22.5712 21.1444 22.803 20.488 22.803C19.8316 22.803 19.202 22.5712 18.7379 22.1586C18.2737 21.746 18.013 21.1865 18.013 20.603C18.013 19.382 19.1143 18.403 20.488 18.403ZM0.687973 0.802979H4.7346L5.89785 3.00298H24.2005C24.5287 3.00298 24.8434 3.11887 25.0755 3.32516C25.3076 3.53145 25.438 3.81124 25.438 4.10298C25.438 4.28998 25.3761 4.47698 25.2895 4.65298L20.8592 11.77C20.4385 12.441 19.6217 12.903 18.6936 12.903H9.47422L8.36047 14.696L8.32335 14.828C8.32335 14.9009 8.35594 14.9709 8.41396 15.0224C8.47198 15.074 8.55067 15.103 8.63272 15.103H22.963V17.303H8.11297C7.45656 17.303 6.82704 17.0712 6.36288 16.6586C5.89873 16.246 5.63797 15.6865 5.63797 15.103C5.63797 14.718 5.74935 14.355 5.93497 14.047L7.61797 11.352L3.16297 3.00298H0.687973V0.802979ZM8.11297 18.403C8.76938 18.403 9.39891 18.6348 9.86306 19.0473C10.3272 19.4599 10.588 20.0195 10.588 20.603C10.588 21.1865 10.3272 21.746 9.86306 22.1586C9.39891 22.5712 8.76938 22.803 8.11297 22.803C7.45656 22.803 6.82704 22.5712 6.36288 22.1586C5.89873 21.746 5.63797 21.1865 5.63797 20.603C5.63797 19.382 6.73935 18.403 8.11297 18.403ZM19.2505 10.703L22.6907 5.20298H7.04872L9.96922 10.703H19.2505Z" fill="#1E1E1E"/>
</svg>
