<svg width="90" height="90" viewBox="0 0 90 90" fill="none" xmlns="http://www.w3.org/2000/svg">
<circle cx="45" cy="45" r="45" fill="#1ED760"/>
<path fill-rule="evenodd" clip-rule="evenodd" d="M65.8771 22.5C54.3121 22.5129 44.4893 28.8739 37.4789 35.3571H24.1203L22.5132 36.9643V46.6071L22.9857 47.745L26.171 50.9304L26.1743 50.9593L39.0314 63.8164L39.0603 63.8196L42.2714 67.0307L43.406 67.5H53.0489L54.656 65.8929V52.5407C61.1457 45.54 67.5003 35.7204 67.4875 24.1071L65.8771 22.5ZM25.7275 38.5714H34.2228C31.6282 41.2954 29.2378 44.2069 27.071 47.2821L25.7275 45.945V38.5714ZM44.0489 64.2857L42.6989 62.9261C45.7804 60.7714 48.6974 58.3906 51.4257 55.8032V64.2857H44.0489ZM40.375 60.6086L29.3789 49.6189C32.5675 45 46.2314 26.8554 64.2282 25.7657C63.1803 43.8043 44.9843 57.4361 40.375 60.6086ZM32.156 67.5V64.2857H25.7275V57.8571H22.5132V67.5H32.156ZM53.846 42.8561C54.5562 41.7922 54.8146 40.4898 54.5644 39.2353C54.3142 37.9809 53.576 36.8773 52.5121 36.1671C51.4482 35.457 50.1458 35.1986 48.8914 35.4488C47.637 35.6989 46.5333 36.4372 45.8232 37.5011C45.1131 38.5645 44.8545 39.8665 45.1044 41.1207C45.3542 42.3748 46.092 43.4783 47.1555 44.1884C48.219 44.8985 49.521 45.1571 50.7751 44.9072C52.0292 44.6574 53.1327 43.9195 53.8428 42.8561H53.846Z" fill="#F8F8F8"/>
</svg>
