<svg width="25" height="20" viewBox="0 0 25 20" fill="none" xmlns="http://www.w3.org/2000/svg">
<path d="M24.3412 18.2686C22.824 15.9434 20.4687 14.1411 17.6563 13.1534C19.0366 12.2332 20.0563 10.9502 20.5707 9.4863C21.0852 8.02236 21.0684 6.45164 20.5228 4.99664C19.9772 3.54163 18.9303 2.27611 17.5306 1.37934C16.1309 0.482565 14.4492 0 12.7238 0C10.9983 0 9.31666 0.482565 7.91693 1.37934C6.51719 2.27611 5.47037 3.54163 4.92475 4.99664C4.37912 6.45164 4.36235 8.02236 4.87682 9.4863C5.39128 10.9502 6.4109 12.2332 7.79123 13.1534C4.97879 14.1411 2.62349 15.9434 1.10635 18.2686C0.934222 18.5339 0.887664 18.849 0.976921 19.1447C1.06618 19.4404 1.28394 19.6925 1.5823 19.8455C1.88066 19.9985 2.23517 20.0399 2.56786 19.9606C2.90055 19.8812 3.18415 19.6877 3.35628 19.4225C4.3057 17.9609 5.67119 16.7472 7.31552 15.9034C8.95985 15.0596 10.8251 14.6153 12.7238 14.6153C14.6224 14.6153 16.4877 15.0596 18.132 15.9034C19.7763 16.7472 21.1418 17.9609 22.0913 19.4225C22.2061 19.5973 22.3703 19.7425 22.5676 19.8437C22.7649 19.9449 22.9884 19.9985 23.2162 19.9994C23.4442 20.001 23.6684 19.9478 23.8652 19.8455C24.013 19.7698 24.1426 19.669 24.2465 19.5487C24.3505 19.4285 24.4267 19.2912 24.4709 19.1448C24.5151 18.9983 24.5264 18.8456 24.5041 18.6952C24.4819 18.5449 24.4265 18.3999 24.3412 18.2686ZM7.09895 7.30746C7.09895 6.31858 7.42884 5.35191 8.0469 4.5297C8.66496 3.70748 9.54344 3.06663 10.5712 2.68821C11.599 2.30978 12.73 2.21077 13.8211 2.40369C14.9122 2.59661 15.9145 3.0728 16.7011 3.77204C17.4878 4.47128 18.0235 5.36216 18.2405 6.33204C18.4575 7.30191 18.3462 8.30721 17.9204 9.22081C17.4947 10.1344 16.7737 10.9153 15.8487 11.4647C14.9238 12.0141 13.8363 12.3073 12.7238 12.3073C11.232 12.3073 9.80128 11.7805 8.74642 10.8429C7.69156 9.90522 7.09895 8.6335 7.09895 7.30746Z" fill="#1E1E1E"/>
</svg>
